<svg width="24" height="24" viewBox="0 0 24 24" fill="none" xmlns="http://www.w3.org/2000/svg">
<mask id="mask0_555_363" style="mask-type:alpha" maskUnits="userSpaceOnUse" x="0" y="0" width="24" height="24">
<rect width="24" height="24" fill="#D9D9D9"/>
</mask>
<g mask="url(#mask0_555_363)">
<path d="M9.97109 11.8461C10.2404 11.5768 10.375 11.2531 10.375 10.875C10.375 10.4969 10.2404 10.1732 9.97109 9.90391C9.70182 9.63464 9.37813 9.5 9 9.5C8.62188 9.5 8.29818 9.63464 8.02891 9.90391C7.75964 10.1732 7.625 10.4969 7.625 10.875C7.625 11.2531 7.75964 11.5768 8.02891 11.8461C8.29818 12.1154 8.62188 12.25 9 12.25C9.37813 12.25 9.70182 12.1154 9.97109 11.8461ZM9 17.3031C10.3979 16.0198 11.4349 14.8539 12.1109 13.8055C12.787 12.757 13.125 11.826 13.125 11.0125C13.125 9.76354 12.7268 8.74089 11.9305 7.94453C11.1341 7.14818 10.1573 6.75 9 6.75C7.84271 6.75 6.86589 7.14818 6.06953 7.94453C5.27318 8.74089 4.875 9.76354 4.875 11.0125C4.875 11.826 5.21302 12.757 5.88906 13.8055C6.5651 14.8539 7.60208 16.0198 9 17.3031ZM9 19.125C7.15521 17.5552 5.77734 16.0971 4.86641 14.7508C3.95547 13.4044 3.5 12.1583 3.5 11.0125C3.5 9.29375 4.05286 7.92448 5.15859 6.90469C6.26432 5.8849 7.54479 5.375 9 5.375C10.4552 5.375 11.7357 5.8849 12.8414 6.90469C13.9471 7.92448 14.5 9.29375 14.5 11.0125C14.5 12.1583 14.0445 13.4044 13.1336 14.7508C12.2227 16.0971 10.8448 17.5552 9 19.125Z" fill="#1C1B1F"/>
</g>
</svg>
