<svg width="103" height="82" viewBox="0 0 103 82" fill="none" xmlns="http://www.w3.org/2000/svg">
<g filter="url(#filter0_d_1393_3961)">
<path d="M11.2656 17.7625C14.3602 12.4025 24.3885 10.9053 32.8667 15.8001C39.2829 19.5045 42.2103 24.6643 42.5718 29.8636C42.706 31.794 43.5694 33.6784 45.243 34.6498C45.5841 34.8468 46.0315 34.7031 46.3876 34.5153C46.6964 34.3525 47.1183 34.4648 47.2929 34.767C48.015 36.017 49.3927 37.0509 50.7548 37.8381C61.3405 43.956 55.9097 40.8245 59.2144 42.7128C64.3871 45.6686 72.5498 49.2896 79.8691 51.1232C80.7684 51.3485 81.5315 51.9509 81.9285 52.7888L82.4558 53.9019L88.3345 55.0265C89.6416 55.2765 90.6278 56.3578 90.7567 57.6823L90.8188 58.3203C91.1503 61.7249 89.2805 64.9634 86.1663 66.3787L85.5828 66.6439C84.3712 67.1945 82.9417 66.8811 82.0716 65.8741L78.1583 61.3454L76.9306 61.4452C76.0066 61.5204 75.1033 61.1608 74.4585 60.4946C69.2109 55.0728 61.9936 49.8143 56.8474 46.8125C53.5597 44.8948 58.987 48.0323 48.3959 41.9239C47.033 41.1378 45.4477 40.4633 44.0047 40.462C43.6558 40.4617 43.3482 40.1525 43.335 39.8038C43.3198 39.4011 43.2207 38.9411 42.8788 38.7446C41.2007 37.781 39.137 37.9754 37.3981 38.8243C32.7147 41.1105 26.7825 41.1549 20.3667 37.4508C11.8886 32.5558 8.17102 23.1225 11.2656 17.7625Z" fill="url(#paint0_radial_1393_3961)"/>
<path d="M11.2656 17.7625C14.3602 12.4025 24.3885 10.9053 32.8667 15.8001C39.2829 19.5045 42.2103 24.6643 42.5718 29.8636C42.706 31.794 43.5694 33.6784 45.243 34.6498C45.5841 34.8468 46.0315 34.7031 46.3876 34.5153C46.6964 34.3525 47.1183 34.4648 47.2929 34.767C48.015 36.017 49.3927 37.0509 50.7548 37.8381C61.3405 43.956 55.9097 40.8245 59.2144 42.7128C64.3871 45.6686 72.5498 49.2896 79.8691 51.1232C80.7684 51.3485 81.5315 51.9509 81.9285 52.7888L82.4558 53.9019L88.3345 55.0265C89.6416 55.2765 90.6278 56.3578 90.7567 57.6823L90.8188 58.3203C91.1503 61.7249 89.2805 64.9634 86.1663 66.3787L85.5828 66.6439C84.3712 67.1945 82.9417 66.8811 82.0716 65.8741L78.1583 61.3454L76.9306 61.4452C76.0066 61.5204 75.1033 61.1608 74.4585 60.4946C69.2109 55.0728 61.9936 49.8143 56.8474 46.8125C53.5597 44.8948 58.987 48.0323 48.3959 41.9239C47.033 41.1378 45.4477 40.4633 44.0047 40.462C43.6558 40.4617 43.3482 40.1525 43.335 39.8038C43.3198 39.4011 43.2207 38.9411 42.8788 38.7446C41.2007 37.781 39.137 37.9754 37.3981 38.8243C32.7147 41.1105 26.7825 41.1549 20.3667 37.4508C11.8886 32.5558 8.17102 23.1225 11.2656 17.7625Z" fill="url(#paint1_linear_1393_3961)" fill-opacity="0.62"/>
<path d="M11.2656 17.7625C14.3602 12.4025 24.3885 10.9053 32.8667 15.8001C39.2829 19.5045 42.2103 24.6643 42.5718 29.8636C42.706 31.794 43.5694 33.6784 45.243 34.6498C45.5841 34.8468 46.0315 34.7031 46.3876 34.5153C46.6964 34.3525 47.1183 34.4648 47.2929 34.767C48.015 36.017 49.3927 37.0509 50.7548 37.8381C61.3405 43.956 55.9097 40.8245 59.2144 42.7128C64.3871 45.6686 72.5498 49.2896 79.8691 51.1232C80.7684 51.3485 81.5315 51.9509 81.9285 52.7888L82.4558 53.9019L88.3345 55.0265C89.6416 55.2765 90.6278 56.3578 90.7567 57.6823L90.8188 58.3203C91.1503 61.7249 89.2805 64.9634 86.1663 66.3787L85.5828 66.6439C84.3712 67.1945 82.9417 66.8811 82.0716 65.8741L78.1583 61.3454L76.9306 61.4452C76.0066 61.5204 75.1033 61.1608 74.4585 60.4946C69.2109 55.0728 61.9936 49.8143 56.8474 46.8125C53.5597 44.8948 58.987 48.0323 48.3959 41.9239C47.033 41.1378 45.4477 40.4633 44.0047 40.462C43.6558 40.4617 43.3482 40.1525 43.335 39.8038C43.3198 39.4011 43.2207 38.9411 42.8788 38.7446C41.2007 37.781 39.137 37.9754 37.3981 38.8243C32.7147 41.1105 26.7825 41.1549 20.3667 37.4508C11.8886 32.5558 8.17102 23.1225 11.2656 17.7625Z" fill="url(#paint2_linear_1393_3961)" fill-opacity="0.23"/>
</g>
<g clip-path="url(#paint3_diamond_1393_3961_clip_path)" data-figma-skip-parse="true"><g transform="matrix(0.0159883 -0.0151154 0.105174 0.111248 73.2221 53.5331)"><rect x="0" y="0" width="1502.03" height="475.209" fill="url(#paint3_diamond_1393_3961)" opacity="1" shape-rendering="crispEdges"/><rect x="0" y="0" width="1502.03" height="475.209" transform="scale(1 -1)" fill="url(#paint3_diamond_1393_3961)" opacity="1" shape-rendering="crispEdges"/><rect x="0" y="0" width="1502.03" height="475.209" transform="scale(-1 1)" fill="url(#paint3_diamond_1393_3961)" opacity="1" shape-rendering="crispEdges"/><rect x="0" y="0" width="1502.03" height="475.209" transform="scale(-1)" fill="url(#paint3_diamond_1393_3961)" opacity="1" shape-rendering="crispEdges"/></g></g><path d="M11.2656 17.7625C14.3602 12.4025 24.3885 10.9054 32.8667 15.8002C39.2829 19.5045 42.2103 24.6644 42.5718 29.8636C42.706 31.794 43.5694 33.6784 45.243 34.6498C45.5841 34.8468 46.0315 34.7031 46.3876 34.5154C46.6964 34.3526 47.1183 34.4648 47.2929 34.7671C48.015 36.017 49.3927 37.0509 50.7548 37.8381C61.3405 43.956 55.9097 40.8245 59.2144 42.7128C64.3871 45.6686 72.5498 49.2897 79.8691 51.1232C80.7684 51.3485 81.5315 51.951 81.9285 52.7888L82.4558 53.9019L88.3345 55.0265C89.6416 55.2765 90.6278 56.3578 90.7567 57.6824L90.8188 58.3204C91.1503 61.7249 89.2805 64.9635 86.1663 66.3787L85.5828 66.6439C84.3712 67.1945 82.9417 66.8811 82.0716 65.8742L78.1583 61.3454L76.9306 61.4453C76.0066 61.5204 75.1033 61.1608 74.4585 60.4946C69.2109 55.0728 61.9936 49.8143 56.8474 46.8126C53.5597 44.8948 58.987 48.0323 48.3959 41.9239C47.033 41.1378 45.4477 40.4634 44.0047 40.4621C43.6558 40.4618 43.3482 40.1525 43.335 39.8038C43.3198 39.4011 43.2207 38.9411 42.8788 38.7447C41.2007 37.7811 39.137 37.9754 37.3981 38.8243C32.7147 41.1106 26.7825 41.155 20.3667 37.4508C11.8886 32.5558 8.17102 23.1225 11.2656 17.7625Z" data-figma-gradient-fill="{&#34;type&#34;:&#34;GRADIENT_DIAMOND&#34;,&#34;stops&#34;:[{&#34;color&#34;:{&#34;r&#34;:1.0,&#34;g&#34;:1.0,&#34;b&#34;:1.0,&#34;a&#34;:1.0},&#34;position&#34;:0.16346153616905212},{&#34;color&#34;:{&#34;r&#34;:1.0,&#34;g&#34;:1.0,&#34;b&#34;:1.0,&#34;a&#34;:0.0},&#34;position&#34;:0.22115384042263031}],&#34;stopsVar&#34;:[{&#34;color&#34;:{&#34;r&#34;:1.0,&#34;g&#34;:1.0,&#34;b&#34;:1.0,&#34;a&#34;:1.0},&#34;position&#34;:0.16346153616905212},{&#34;color&#34;:{&#34;r&#34;:1.0,&#34;g&#34;:1.0,&#34;b&#34;:1.0,&#34;a&#34;:0.0},&#34;position&#34;:0.22115384042263031}],&#34;transform&#34;:{&#34;m00&#34;:31.976633071899414,&#34;m01&#34;:210.34812927246094,&#34;m02&#34;:-47.940284729003906,&#34;m10&#34;:-30.230791091918945,&#34;m11&#34;:222.49586486816406,&#34;m12&#34;:-42.599437713623047},&#34;opacity&#34;:1.0,&#34;blendMode&#34;:&#34;HARD_LIGHT&#34;,&#34;visible&#34;:true}" style="mix-blend-mode:hard-light"/>
<mask id="path-3-inside-1_1393_3961" fill="white">
<path d="M11.2656 17.7625C14.3602 12.4025 24.3885 10.9054 32.8667 15.8002C39.2829 19.5045 42.2103 24.6644 42.5718 29.8636C42.706 31.794 43.5694 33.6784 45.243 34.6498C45.5841 34.8468 46.0315 34.7031 46.3876 34.5154C46.6964 34.3525 47.1183 34.4648 47.2929 34.7671C48.015 36.017 49.3927 37.0509 50.7548 37.8381C61.3405 43.956 55.9097 40.8245 59.2144 42.7128C64.3871 45.6686 72.5498 49.2897 79.8691 51.1232C80.7684 51.3485 81.5315 51.951 81.9285 52.7888L82.4558 53.9019L88.3345 55.0265C89.6416 55.2765 90.6278 56.3578 90.7567 57.6824L90.8188 58.3204C91.1503 61.7249 89.2805 64.9635 86.1663 66.3787L85.5828 66.6439C84.3712 67.1945 82.9417 66.8811 82.0716 65.8742L78.1583 61.3454L76.9306 61.4453C76.0066 61.5204 75.1033 61.1608 74.4585 60.4946C69.2109 55.0728 61.9936 49.8143 56.8474 46.8126C53.5597 44.8948 58.987 48.0323 48.3959 41.9239C47.033 41.1378 45.4477 40.4634 44.0047 40.4621C43.6558 40.4618 43.3482 40.1525 43.335 39.8038C43.3198 39.4011 43.2207 38.9411 42.8788 38.7447C41.2007 37.7811 39.137 37.9754 37.3981 38.8243C32.7147 41.1106 26.7825 41.155 20.3667 37.4508C11.8886 32.5558 8.17102 23.1225 11.2656 17.7625Z"/>
</mask>
<g clip-path="url(#paint4_angular_1393_3961_clip_path)" data-figma-skip-parse="true" mask="url(#path-3-inside-1_1393_3961)"><g transform="matrix(0.0356264 0.0205689 -0.0115666 0.020034 38.2354 32.7562)"><foreignObject x="-1527.71" y="-1527.71" width="3055.42" height="3055.42"><div xmlns="http://www.w3.org/1999/xhtml" style="background:conic-gradient(from 90deg,rgba(126, 126, 126, 1) 0deg,rgba(222, 222, 222, 1) 6.35035deg,rgba(229, 229, 229, 1) 93.4615deg,rgba(178, 178, 178, 1) 141.923deg,rgba(0, 0, 0, 1) 351.607deg,rgba(126, 126, 126, 1) 360deg);height:100%;width:100%;opacity:1"></div></foreignObject></g></g><path d="M11.2656 17.7625C13.1294 14.6828 16.8091 13.3372 20.2409 13.0343C24.5944 12.6646 29.0075 13.8234 32.726 16.044C32.87 16.13 33.0121 16.2168 33.1524 16.3043C38.0273 19.249 41.6504 24.3471 41.8616 29.913C41.937 31.2283 42.3218 32.5618 43.1235 33.687C43.5815 34.3301 44.2459 34.824 44.9537 35.1481C45.6948 35.4756 46.2203 35.1436 46.6162 34.949C46.6259 34.9426 46.6381 34.9373 46.6528 34.934C46.7314 34.9096 46.8554 34.9765 46.8583 35.0182C47.6541 36.4416 48.8704 37.4858 50.1652 38.2809C50.2478 38.3308 50.3308 38.3799 50.4138 38.4282C53.2514 40.0751 56.0309 41.7204 58.8585 43.3356C65.4215 47.0278 72.3675 49.9749 79.681 51.8739C79.77 51.8962 79.8576 51.9234 79.9432 51.9554C80.4837 52.1521 81.1881 52.3574 81.5477 52.9692C81.5905 53.0446 81.6307 53.1213 81.6678 53.1995C81.8065 53.4924 81.9419 53.7868 82.0745 54.0826C82.1186 54.1808 82.2712 54.2939 82.3766 54.3163C84.3282 54.7323 86.2578 55.264 88.1905 55.779C89.1261 56.0444 89.7479 56.9149 89.7769 57.7778C89.7907 57.9911 89.8057 58.2043 89.822 58.4174C89.841 58.6744 89.8483 58.9304 89.8447 59.187C89.8289 60.376 89.5041 61.5596 88.9072 62.5892C88.3119 63.6204 87.4432 64.4859 86.4226 65.0906C86.2025 65.2214 85.9776 65.3423 85.746 65.4538C85.5532 65.546 85.361 65.6394 85.1692 65.734C84.4129 66.1365 83.3568 66.0351 82.663 65.3631C81.25 63.9473 79.8233 62.5435 78.4868 61.0616C78.4161 60.9762 78.2337 60.9061 78.1231 60.9127C77.8005 60.9459 77.4775 60.9759 77.1543 61.0022C77.0683 61.0092 76.9821 61.0133 76.8956 61.015C76.1936 61.0194 75.6394 60.5575 75.1865 60.178C75.1148 60.1188 75.0462 60.0555 74.9814 59.9885C69.6849 54.6083 63.6775 50.0485 57.2112 46.1889C54.4039 44.5383 51.5951 42.944 48.7548 41.3017C48.6718 41.2538 48.5881 41.2065 48.5039 41.1597C47.1659 40.4302 45.644 39.9071 44.0052 39.932C43.9821 39.9516 43.8702 39.8858 43.8559 39.8163C43.8521 39.8042 43.851 39.7934 43.8518 39.7843C43.8215 39.3412 43.8457 38.7098 43.1764 38.2267C42.5364 37.7781 41.7733 37.4553 40.9862 37.3801C39.6084 37.2481 38.2597 37.5869 37.0861 38.1853C32.1886 40.8181 25.8884 40.311 20.9301 37.4751C20.7852 37.3951 20.6401 37.313 20.4948 37.229C16.7416 35.06 13.6067 31.7491 11.8839 27.7975C10.5234 24.6808 10.056 20.8764 11.7852 18.0625C11.4388 17.8625 11.0924 17.6625 10.746 17.4625C8.92517 20.9164 9.72001 24.8973 11.2181 28.0988C13.1455 32.1502 16.3986 35.4546 20.2387 37.6726C20.3869 37.758 20.5348 37.8416 20.6824 37.9232C25.665 40.7779 32.1412 42.1239 37.71 39.4633C38.7059 39.0046 39.803 38.7726 40.8402 38.8739C41.4301 38.9314 42.021 39.0196 42.5813 39.2628C42.6307 39.2079 42.813 39.4899 42.8183 39.8233C42.8232 39.926 42.8416 40.0262 42.8709 40.1209C43.0255 40.6012 43.4438 40.973 44.0042 40.9921C45.322 41.0531 46.5875 41.7442 47.8062 42.4153C47.8834 42.4582 47.9605 42.5019 48.037 42.5461C50.8742 44.1892 53.6911 45.7911 56.4837 47.4362C62.8077 51.2143 68.7754 55.7539 73.9356 61.0007C74.0381 61.1066 74.1466 61.2069 74.2605 61.3008C75.0259 61.933 76.0859 62.0056 76.9656 61.8755C77.0512 61.8632 77.137 61.8533 77.223 61.8463C77.5462 61.82 77.8697 61.7975 78.1935 61.778L77.8299 61.6292C79.1022 63.1665 80.2843 64.7818 81.4802 66.3852C82.4517 67.6972 84.41 68.2567 85.9963 67.5538C86.1936 67.4716 86.3904 67.3882 86.5867 67.3036C86.8903 67.1718 87.1847 67.0216 87.4695 66.8524C88.7919 66.0686 89.8977 64.9313 90.6619 63.6024C91.4293 62.2748 91.852 60.747 91.8674 59.2126C91.8711 58.8816 91.8537 58.5518 91.8156 58.2233C91.7906 58.0111 91.7642 57.799 91.7366 57.587C91.5516 55.8684 90.0938 54.4588 88.4785 54.274C86.4921 54.0392 84.5025 53.8213 82.5351 53.4875L82.8371 53.7213C82.6922 53.4313 82.5502 53.1401 82.4114 52.8472C82.3744 52.769 82.3405 52.6893 82.3092 52.6084C81.9947 51.7835 81.4295 50.8585 80.4853 50.5058C80.3451 50.4534 80.2021 50.4089 80.0571 50.3726C72.9389 48.5296 66.0171 45.6556 59.5703 42.09C56.7436 40.504 53.9423 38.8752 51.0958 37.248C51.0186 37.2038 50.9416 37.1588 50.865 37.1133C49.6693 36.3953 48.4392 35.6353 47.7275 34.516C47.4393 34.0519 46.9198 33.8779 46.4377 33.981C46.3428 34.0024 46.2486 34.0357 46.1589 34.0817C45.8647 34.244 45.5215 34.2303 45.531 34.1509C45.0409 33.782 44.6725 33.3089 44.3271 32.8259C43.7192 31.9762 43.3756 30.9063 43.2819 29.8142C42.8449 23.6689 38.4749 18.6282 33.4508 15.809C33.3048 15.724 33.1571 15.6398 33.0075 15.5563C29.1301 13.3944 24.6202 12.3287 20.2177 12.7994C16.7486 13.18 13.055 14.6339 11.2656 17.7625ZM11.2656 17.7625L10.746 17.4625L11.7852 18.0625L11.2656 17.7625Z" data-figma-gradient-fill="{&#34;type&#34;:&#34;GRADIENT_ANGULAR&#34;,&#34;stops&#34;:[{&#34;color&#34;:{&#34;r&#34;:0.87088716030120850,&#34;g&#34;:0.87088716030120850,&#34;b&#34;:0.87088716030120850,&#34;a&#34;:1.0},&#34;position&#34;:0.017639864236116409},{&#34;color&#34;:{&#34;r&#34;:0.9016113281250,&#34;g&#34;:0.9016113281250,&#34;b&#34;:0.9016113281250,&#34;a&#34;:1.0},&#34;position&#34;:0.25961539149284363},{&#34;color&#34;:{&#34;r&#34;:0.70055210590362549,&#34;g&#34;:0.70055210590362549,&#34;b&#34;:0.70055210590362549,&#34;a&#34;:1.0},&#34;position&#34;:0.39423078298568726},{&#34;color&#34;:{&#34;r&#34;:0.0,&#34;g&#34;:0.0,&#34;b&#34;:0.0,&#34;a&#34;:1.0},&#34;position&#34;:0.97668629884719849}],&#34;stopsVar&#34;:[{&#34;color&#34;:{&#34;r&#34;:0.87088716030120850,&#34;g&#34;:0.87088716030120850,&#34;b&#34;:0.87088716030120850,&#34;a&#34;:1.0},&#34;position&#34;:0.017639864236116409},{&#34;color&#34;:{&#34;r&#34;:0.9016113281250,&#34;g&#34;:0.9016113281250,&#34;b&#34;:0.9016113281250,&#34;a&#34;:1.0},&#34;position&#34;:0.25961539149284363},{&#34;color&#34;:{&#34;r&#34;:0.70055210590362549,&#34;g&#34;:0.70055210590362549,&#34;b&#34;:0.70055210590362549,&#34;a&#34;:1.0},&#34;position&#34;:0.39423078298568726},{&#34;color&#34;:{&#34;r&#34;:0.0,&#34;g&#34;:0.0,&#34;b&#34;:0.0,&#34;a&#34;:1.0},&#34;position&#34;:0.97668629884719849}],&#34;transform&#34;:{&#34;m00&#34;:71.252799987792969,&#34;m01&#34;:-23.133262634277344,&#34;m02&#34;:14.175652503967285,&#34;m10&#34;:41.137821197509766,&#34;m11&#34;:40.06799316406250,&#34;m12&#34;:-7.8467230796813965},&#34;opacity&#34;:1.0,&#34;blendMode&#34;:&#34;NORMAL&#34;,&#34;visible&#34;:true}" mask="url(#path-3-inside-1_1393_3961)"/>
<g clip-path="url(#paint5_angular_1393_3961_clip_path)" data-figma-skip-parse="true"><g transform="matrix(0.0189852 0.0109611 -0.00430083 0.00744926 59.648 45.4859)"><foreignObject x="-1521.35" y="-1521.35" width="3042.69" height="3042.69"><div xmlns="http://www.w3.org/1999/xhtml" style="background:conic-gradient(from 90deg,rgba(122, 122, 122, 1) 0deg,rgba(147, 147, 147, 1) 25.943deg,rgba(150, 150, 150, 1) 71.6948deg,rgba(136, 134, 135, 1) 215.799deg,rgba(81, 81, 81, 1) 330.886deg,rgba(122, 122, 122, 1) 359.766deg,rgba(122, 122, 122, 1) 360deg);height:100%;width:100%;opacity:1"></div></foreignObject></g></g><path d="M47.0251 34.9153C46.9105 34.9734 46.8519 35.0054 46.8488 35.0097C47.6163 36.8599 49.2134 38.072 50.9213 38.9735L58.9836 43.6283C64.3799 46.6207 70.0365 49.2784 75.8482 51.3184C76.9928 51.6775 78.1437 52.0194 79.3022 52.3124C79.5544 52.3772 79.8101 52.4553 80.0552 52.6117C80.3055 52.7607 80.4934 53.0592 80.5583 53.3184L80.6012 53.4649L80.4712 53.5454C79.8173 53.9407 79.3927 54.762 79.6616 55.4731C79.9407 56.3969 81.0287 56.8544 81.925 56.5273C82.4258 56.36 82.8602 55.9816 83.128 55.518L83.2042 55.3861L83.351 55.4246C84.7084 55.7789 86.0663 56.1332 87.4149 56.4854C88.091 56.6197 88.7589 57.1423 88.8771 57.8844C89.019 58.7652 89.0986 59.6847 88.8188 60.5909C88.7123 60.923 88.4783 61.2757 88.106 61.4231C88.0981 61.4264 88.0901 61.4299 88.0822 61.4331C87.7078 61.5934 87.2341 61.4469 87.0152 61.1035C86.8237 60.8307 86.8329 60.4605 86.9916 60.1776C86.1974 60.1552 85.4031 60.1335 84.6089 60.1111C85.0254 60.7878 85.4408 61.4655 85.8573 62.1422C86.0228 61.8629 86.3391 61.6694 86.6715 61.6989C87.0783 61.7167 87.442 62.0537 87.4904 62.4581C87.4916 62.4666 87.4925 62.4752 87.4937 62.4837C87.5521 62.8798 87.3637 63.2589 87.1293 63.5171C86.4844 64.2125 85.6483 64.6033 84.8146 64.9209C84.1128 65.1895 83.3262 64.8727 82.8781 64.361C81.8925 63.3626 80.9069 62.3634 79.9213 61.365L79.8145 61.2571L79.8907 61.1252C80.1583 60.6614 80.2688 60.096 80.1633 59.5787C79.9985 58.6389 79.0582 57.9255 78.1186 58.1456C77.3683 58.2683 76.8693 59.0466 76.854 59.8106L76.8492 59.9634L76.7009 59.9996C76.444 60.0729 76.0916 60.0595 75.8374 59.9171C75.5793 59.7831 75.3839 59.6007 75.2016 59.4148C74.3686 58.558 73.4971 57.7322 72.6138 56.9205C67.9413 52.9074 62.8113 49.3375 57.5217 46.1604L49.4594 41.5056C47.8227 40.4755 45.9714 39.6991 43.9825 39.9606C45.9142 39.6877 47.9867 40.1034 49.6596 41.1588L57.7219 45.8136C63.0516 49.0164 68.1589 52.5682 72.8844 56.6256C73.772 57.4414 74.6466 58.2697 75.4896 59.1367C75.788 59.4441 76.0987 59.687 76.4629 59.6423C76.54 58.7861 77.1284 57.9084 78.0433 57.7526C79.1801 57.4765 80.3742 58.3845 80.5544 59.4989C80.6706 60.0761 80.5673 60.6724 80.3078 61.1878C81.2593 62.1517 82.2115 63.1155 83.1689 64.0857C83.5477 64.515 84.1602 64.7455 84.6761 64.5455C85.4746 64.2448 86.2758 63.8534 86.8299 63.2506C87.0195 63.0396 87.1338 62.7843 87.0971 62.5378C87.096 62.5293 87.095 62.5206 87.0938 62.5122C87.0677 62.2919 86.8692 62.1073 86.6475 62.0978C86.3728 62.0727 86.1158 62.3294 86.1398 62.6041C86.1617 62.8122 85.8498 62.9099 85.7487 62.7268C85.191 61.8206 84.633 60.9144 84.0752 60.0082C84.0364 59.9451 84.0357 59.8658 84.0727 59.8016C84.1098 59.7374 84.1789 59.6983 84.2529 59.7004C85.3166 59.7303 86.3804 59.7605 87.444 59.7904C87.6531 59.7863 87.7245 60.1053 87.5333 60.1904C87.2834 60.307 87.1897 60.6579 87.3487 60.8833C87.4678 61.0704 87.7269 61.1501 87.9308 61.0626C87.9387 61.0594 87.9466 61.0559 87.9545 61.0527C88.1864 60.9611 88.3504 60.7345 88.4383 60.4648C88.6833 59.6835 88.6216 58.794 88.4828 57.9522C88.398 57.4055 87.893 56.9902 87.3233 56.8745C86.0126 56.5324 84.701 56.1909 83.3903 55.8487C83.0737 56.3308 82.6091 56.7181 82.0515 56.9059C80.9963 57.3071 79.6128 56.7269 79.2836 55.6044C78.9611 54.7345 79.4269 53.7867 80.1294 53.2917C79.9862 52.9536 79.621 52.8055 79.2054 52.7007C78.033 52.4042 76.8784 52.0609 75.7281 51.7001C69.8515 49.6365 64.222 46.9893 58.7834 43.975L50.7211 39.3202C48.9734 38.4002 47.5778 36.8162 46.8488 35.0097C46.8477 35.0074 46.786 35.0342 46.665 35.0897C46.785 35.0318 46.9051 34.9732 47.0251 34.9153ZM77.631 59.7089C77.6807 59.3405 78.0166 59.0139 78.3981 58.9994C78.9105 58.9586 79.3751 59.3846 79.4144 59.8759C79.4542 60.5357 79.0415 61.2074 78.3568 61.321C78.2283 61.3339 78.1031 61.347 77.9782 61.3595C77.9009 61.3672 77.8231 61.3754 77.7458 61.3832C77.7362 61.3005 77.7266 61.217 77.717 61.1343C77.794 61.124 77.8715 61.1146 77.9485 61.1044C78.0729 61.0879 78.198 61.0707 78.3225 61.0542C78.8043 60.9751 79.1478 60.3883 79.0915 59.9116C79.0542 59.5868 78.7375 59.3239 78.424 59.3627C78.2144 59.3808 78.0431 59.5546 78.0195 59.7685C78.012 59.8257 78.0126 59.8856 78.0215 59.9467C78.0288 59.9992 78.0149 60.0527 77.9824 60.0945C77.9499 60.136 77.9015 60.1636 77.8483 60.1704C77.7951 60.1771 77.7412 60.1618 77.6994 60.1295C77.6576 60.097 77.6309 60.049 77.6251 59.9965C77.6147 59.9027 77.6149 59.8057 77.631 59.7089ZM80.5456 55.2799C80.3674 54.9422 80.4822 54.488 80.7765 54.2607C80.8523 54.1984 80.9362 54.1497 81.0226 54.1119C81.071 54.0906 81.126 54.0897 81.175 54.1096C81.2238 54.1297 81.264 54.1688 81.2849 54.2182C81.3056 54.2676 81.3058 54.3234 81.2861 54.3723C81.2662 54.4213 81.2268 54.4601 81.1777 54.4799C81.1203 54.5028 81.0681 54.5322 81.0224 54.5673C80.8489 54.6948 80.784 54.93 80.8732 55.1206C80.9963 55.4115 81.3824 55.5543 81.6824 55.4242C82.1233 55.2346 82.4597 54.6437 82.2873 54.1869C82.2394 54.0709 82.1917 53.954 82.1438 53.8379C82.1141 53.7661 82.0836 53.6943 82.0539 53.6225C82.1303 53.5895 82.2074 53.556 82.2839 53.523C82.3158 53.5938 82.3476 53.6653 82.3796 53.7361C82.4312 53.8505 82.4825 53.9655 82.5355 54.0832C82.7795 54.733 82.4041 55.4263 81.8128 55.7217C81.3676 55.9333 80.7664 55.7439 80.5456 55.2799Z" data-figma-gradient-fill="{&#34;type&#34;:&#34;GRADIENT_ANGULAR&#34;,&#34;stops&#34;:[{&#34;color&#34;:{&#34;r&#34;:0.58000010251998901,&#34;g&#34;:0.58000010251998901,&#34;b&#34;:0.58000010251998901,&#34;a&#34;:1.0},&#34;position&#34;:0.072063952684402466},{&#34;color&#34;:{&#34;r&#34;:0.58995062112808228,&#34;g&#34;:0.58995062112808228,&#34;b&#34;:0.58995062112808228,&#34;a&#34;:1.0},&#34;position&#34;:0.19915218651294708},{&#34;color&#34;:{&#34;r&#34;:0.53602015972137451,&#34;g&#34;:0.52664697170257568,&#34;b&#34;:0.53164607286453247,&#34;a&#34;:1.0},&#34;position&#34;:0.59944117069244385},{&#34;color&#34;:{&#34;r&#34;:0.31985574960708618,&#34;g&#34;:0.31985574960708618,&#34;b&#34;:0.31985574960708618,&#34;a&#34;:1.0},&#34;position&#34;:0.91912788152694702},{&#34;color&#34;:{&#34;r&#34;:0.48111104965209961,&#34;g&#34;:0.48111104965209961,&#34;b&#34;:0.48111104965209961,&#34;a&#34;:1.0},&#34;position&#34;:0.99935024976730347}],&#34;stopsVar&#34;:[{&#34;color&#34;:{&#34;r&#34;:0.58000010251998901,&#34;g&#34;:0.58000010251998901,&#34;b&#34;:0.58000010251998901,&#34;a&#34;:1.0},&#34;position&#34;:0.072063952684402466},{&#34;color&#34;:{&#34;r&#34;:0.58995062112808228,&#34;g&#34;:0.58995062112808228,&#34;b&#34;:0.58995062112808228,&#34;a&#34;:1.0},&#34;position&#34;:0.19915218651294708},{&#34;color&#34;:{&#34;r&#34;:0.53602015972137451,&#34;g&#34;:0.52664697170257568,&#34;b&#34;:0.53164607286453247,&#34;a&#34;:1.0},&#34;position&#34;:0.59944117069244385},{&#34;color&#34;:{&#34;r&#34;:0.31985574960708618,&#34;g&#34;:0.31985574960708618,&#34;b&#34;:0.31985574960708618,&#34;a&#34;:1.0},&#34;position&#34;:0.91912788152694702},{&#34;color&#34;:{&#34;r&#34;:0.48111104965209961,&#34;g&#34;:0.48111104965209961,&#34;b&#34;:0.48111104965209961,&#34;a&#34;:1.0},&#34;position&#34;:0.99935024976730347}],&#34;transform&#34;:{&#34;m00&#34;:37.970424652099609,&#34;m01&#34;:-8.6016645431518555,&#34;m02&#34;:44.963615417480469,&#34;m10&#34;:21.922233581542969,&#34;m11&#34;:14.898524284362793,&#34;m12&#34;:27.075494766235352},&#34;opacity&#34;:1.0,&#34;blendMode&#34;:&#34;NORMAL&#34;,&#34;visible&#34;:true}"/>
<mask id="path-6-inside-2_1393_3961" fill="white">
<path d="M11.2656 17.7625C14.3602 12.4025 24.3885 10.9054 32.8667 15.8002C39.2829 19.5045 42.2103 24.6644 42.5718 29.8636C42.706 31.794 43.5694 33.6784 45.243 34.6498C45.5841 34.8468 46.0315 34.7031 46.3876 34.5154C46.6964 34.3525 47.1183 34.4648 47.2929 34.7671C48.015 36.017 49.3927 37.0509 50.7548 37.8381C61.3405 43.956 55.9097 40.8245 59.2144 42.7128C64.3871 45.6686 72.5498 49.2897 79.8691 51.1232C80.7684 51.3485 81.5315 51.951 81.9285 52.7888L82.4558 53.9019L88.3345 55.0265C89.6416 55.2765 90.6278 56.3578 90.7567 57.6824L90.8188 58.3204C91.1503 61.7249 89.2805 64.9635 86.1663 66.3787L85.5828 66.6439C84.3712 67.1945 82.9417 66.8811 82.0716 65.8742L78.1583 61.3454L76.9306 61.4453C76.0066 61.5204 75.1033 61.1608 74.4585 60.4946C69.2109 55.0728 61.9936 49.8143 56.8474 46.8126C53.5597 44.8948 58.987 48.0323 48.3959 41.9239C47.033 41.1378 45.4477 40.4634 44.0047 40.4621C43.6558 40.4618 43.3482 40.1525 43.335 39.8038C43.3198 39.4011 43.2207 38.9411 42.8788 38.7447C41.2007 37.7811 39.137 37.9754 37.3981 38.8243C32.7147 41.1106 26.7825 41.155 20.3667 37.4508C11.8886 32.5558 8.17102 23.1225 11.2656 17.7625Z"/>
</mask>
<g clip-path="url(#paint6_angular_1393_3961_clip_path)" data-figma-skip-parse="true" mask="url(#path-6-inside-2_1393_3961)"><g transform="matrix(0.0356264 0.0205689 -0.0115666 0.020034 38.2354 32.7562)"><foreignObject x="-1510.69" y="-1510.69" width="3021.39" height="3021.39"><div xmlns="http://www.w3.org/1999/xhtml" style="background:conic-gradient(from 90deg,rgba(130, 130, 130, 1) 0deg,rgba(152, 152, 152, 1) 8.91331deg,rgba(194, 192, 192, 1) 16.9494deg,rgba(151, 151, 151, 1) 172.033deg,rgba(104, 104, 104, 1) 349.133deg,rgba(130, 130, 130, 1) 360deg);height:100%;width:100%;opacity:1"></div></foreignObject></g></g><path d="M11.0491 17.6375C11.1935 17.7208 11.3378 17.8042 11.4821 17.8875C13.1752 14.8482 16.8043 13.3709 20.2371 12.996C24.5916 12.5256 29.0684 13.6098 32.8667 15.8003C33.0136 15.885 33.1586 15.9705 33.3018 16.0568C38.2682 18.9487 42.0847 24.1329 42.3272 29.8806C42.4014 31.1231 42.7688 32.3744 43.5086 33.4115C43.9301 34.0024 44.4755 34.5138 45.1092 34.8802C45.6395 35.1606 46.1384 34.9368 46.5118 34.751C46.6829 34.6519 46.9754 34.7321 47.0623 34.9003C47.9144 36.3263 49.2673 37.2711 50.6217 38.0684C53.4643 39.7054 56.2532 41.3411 59.0831 42.9426C65.615 46.5846 72.5568 49.4969 79.8059 51.3754C80.6211 51.5752 81.3402 52.1432 81.6941 52.8998C81.87 53.2708 82.0459 53.6418 82.2218 54.0128L82.278 54.1316L82.4072 54.1563C84.3668 54.5307 86.3264 54.9051 88.2861 55.2796C89.4519 55.4849 90.403 56.5272 90.501 57.7073C90.5218 57.9199 90.5425 58.1326 90.5632 58.3452C90.5909 58.6286 90.603 58.9122 90.5994 59.1966C90.587 60.498 90.4731 61.9018 89.7845 63.0958C89.0949 64.2888 87.9393 65.0931 86.8175 65.7552C86.573 65.9004 86.3214 66.0317 86.0622 66.1495C85.8676 66.2379 85.6731 66.3262 85.4786 66.4146C84.4057 66.9208 83.0249 66.6178 82.2626 65.7091C80.9584 64.1993 79.6542 62.6895 78.3501 61.1797L78.266 61.0824L78.1378 61.0928C77.7285 61.126 77.3193 61.1593 76.9101 61.1925C76.0761 61.2645 75.2229 60.9251 74.6411 60.3179C69.3899 54.9801 63.3968 50.4251 56.9772 46.59C54.1752 44.9404 51.3641 43.343 48.5251 41.6998C47.1577 40.9257 45.663 40.229 44.0049 40.2032C43.8116 40.2116 43.5937 39.9959 43.5938 39.7941C43.5684 39.3784 43.5127 38.8357 43.0078 38.5201C42.3745 38.1551 41.6599 37.9387 40.9384 37.8693C39.6721 37.7473 38.4059 38.054 37.2935 38.6101C32.1908 41.2731 25.7933 40.5539 20.8063 37.6991C20.66 37.6183 20.5135 37.5355 20.3668 37.4507C16.5706 35.2566 13.3933 31.9216 11.6234 27.9153C10.2317 24.7549 9.69659 20.8734 11.4821 17.8875C11.3378 17.8042 11.1935 17.7208 11.0491 17.6375C9.28456 20.9194 10.0118 24.8232 11.4786 27.9809C13.3589 31.9777 16.5696 35.258 20.3667 37.4509C20.5135 37.5356 20.66 37.6183 20.8063 37.6991C25.7601 40.5349 32.139 41.6688 37.5027 39.0385C38.5597 38.5375 39.7393 38.2734 40.888 38.3848C41.5434 38.448 42.1829 38.6426 42.7499 38.9692C42.9637 39.0821 43.0661 39.4526 43.0763 39.8136C43.1007 40.3042 43.4993 40.7129 44.0045 40.721C45.4908 40.7391 46.9414 41.3934 48.2667 42.1479C51.1052 43.7903 53.9199 45.389 56.7176 47.0351C63.0884 50.8377 69.0704 55.382 74.2759 60.6713C74.9567 61.3814 75.9609 61.7836 76.9512 61.6981C77.3604 61.6647 77.7696 61.6313 78.1789 61.598L77.9666 61.5111C79.2713 63.0204 80.5759 64.5298 81.8806 66.0392C82.7836 67.1146 84.4173 67.4724 85.687 66.8732C85.8815 66.7847 86.076 66.6963 86.2705 66.6079C86.5464 66.4824 86.8142 66.3426 87.0746 66.1878C88.2958 65.4614 89.1147 64.2629 89.7845 63.0958C90.4603 61.9325 91.0939 60.625 91.1126 59.2031C91.1165 58.8998 91.1037 58.5975 91.0744 58.2955C91.0537 58.0828 91.0331 57.8701 91.0124 57.6575C90.8964 56.2561 89.768 55.0182 88.3829 54.7734C86.4234 54.3981 84.464 54.0228 82.5045 53.6475L82.6899 53.791C82.5142 53.4199 82.3385 53.0489 82.1628 52.6778C81.741 51.7757 80.8891 51.106 79.9323 50.8711C72.7496 49.0076 65.8235 46.0988 59.3457 42.483C56.5213 40.8834 53.7294 39.2449 50.8879 37.6079C49.5724 36.8378 48.2801 35.9102 47.5235 34.6339C47.2617 34.1963 46.7047 34.0541 46.2634 34.2798C45.9466 34.4508 45.5767 34.5453 45.3762 34.4191C44.8113 34.0923 44.3239 33.6366 43.942 33.1014C43.2722 32.1637 42.9112 31.0114 42.8164 29.8466C42.4106 23.8832 38.2342 18.9289 33.3018 16.0568C33.1586 15.9705 33.0136 15.8849 32.8668 15.8001C29.0692 13.6081 24.623 12.4677 20.2215 12.8377C16.7534 13.1463 13.0091 14.4684 11.0491 17.6375ZM11.4821 17.8875L11.0491 17.6375L11.4821 17.8875Z" data-figma-gradient-fill="{&#34;type&#34;:&#34;GRADIENT_ANGULAR&#34;,&#34;stops&#34;:[{&#34;color&#34;:{&#34;r&#34;:0.59793794155120850,&#34;g&#34;:0.59793794155120850,&#34;b&#34;:0.59793794155120850,&#34;a&#34;:1.0},&#34;position&#34;:0.024759192019701004},{&#34;color&#34;:{&#34;r&#34;:0.76406627893447876,&#34;g&#34;:0.75667643547058105,&#34;b&#34;:0.75667643547058105,&#34;a&#34;:1.0},&#34;position&#34;:0.047081734985113144},{&#34;color&#34;:{&#34;r&#34;:0.5944824218750,&#34;g&#34;:0.5944824218750,&#34;b&#34;:0.5944824218750,&#34;a&#34;:1.0},&#34;position&#34;:0.47786957025527954},{&#34;color&#34;:{&#34;r&#34;:0.40985578298568726,&#34;g&#34;:0.40985578298568726,&#34;b&#34;:0.40985578298568726,&#34;a&#34;:1.0},&#34;position&#34;:0.96981507539749146}],&#34;stopsVar&#34;:[{&#34;color&#34;:{&#34;r&#34;:0.59793794155120850,&#34;g&#34;:0.59793794155120850,&#34;b&#34;:0.59793794155120850,&#34;a&#34;:1.0},&#34;position&#34;:0.024759192019701004},{&#34;color&#34;:{&#34;r&#34;:0.76406627893447876,&#34;g&#34;:0.75667643547058105,&#34;b&#34;:0.75667643547058105,&#34;a&#34;:1.0},&#34;position&#34;:0.047081734985113144},{&#34;color&#34;:{&#34;r&#34;:0.5944824218750,&#34;g&#34;:0.5944824218750,&#34;b&#34;:0.5944824218750,&#34;a&#34;:1.0},&#34;position&#34;:0.47786957025527954},{&#34;color&#34;:{&#34;r&#34;:0.40985578298568726,&#34;g&#34;:0.40985578298568726,&#34;b&#34;:0.40985578298568726,&#34;a&#34;:1.0},&#34;position&#34;:0.96981507539749146}],&#34;transform&#34;:{&#34;m00&#34;:71.252799987792969,&#34;m01&#34;:-23.133262634277344,&#34;m02&#34;:14.175652503967285,&#34;m10&#34;:41.137821197509766,&#34;m11&#34;:40.06799316406250,&#34;m12&#34;:-7.8467230796813965},&#34;opacity&#34;:1.0,&#34;blendMode&#34;:&#34;NORMAL&#34;,&#34;visible&#34;:true}" mask="url(#path-6-inside-2_1393_3961)"/>
<path d="M32.2707 16.6103C24.0871 11.8856 14.5502 13.0834 11.7031 18.0146C8.85609 22.9458 12.5872 31.804 20.7707 36.5289C38.2519 46.6216 49.9984 26.8453 32.2707 16.6103Z" fill="url(#paint7_radial_1393_3961)"/>
<path d="M32.2707 16.6103C24.0871 11.8856 14.5502 13.0834 11.7031 18.0146C8.85609 22.9458 12.5872 31.804 20.7707 36.5289C38.2519 46.6216 49.9984 26.8453 32.2707 16.6103Z" fill="url(#paint8_radial_1393_3961)" style="mix-blend-mode:hard-light"/>
<g clip-path="url(#paint9_diamond_1393_3961_clip_path)" data-figma-skip-parse="true"><g transform="matrix(-0.0141368 -0.000113203 0.000364873 -0.0130726 28.2606 38.7994)"><rect x="0" y="0" width="1694.87" height="2448.89" fill="url(#paint9_diamond_1393_3961)" opacity="1" shape-rendering="crispEdges"/><rect x="0" y="0" width="1694.87" height="2448.89" transform="scale(1 -1)" fill="url(#paint9_diamond_1393_3961)" opacity="1" shape-rendering="crispEdges"/><rect x="0" y="0" width="1694.87" height="2448.89" transform="scale(-1 1)" fill="url(#paint9_diamond_1393_3961)" opacity="1" shape-rendering="crispEdges"/><rect x="0" y="0" width="1694.87" height="2448.89" transform="scale(-1)" fill="url(#paint9_diamond_1393_3961)" opacity="1" shape-rendering="crispEdges"/></g></g><path d="M32.2707 16.6103C24.0871 11.8856 14.5502 13.0834 11.7031 18.0146C8.85609 22.9458 12.5872 31.804 20.7707 36.5289C38.2519 46.6216 49.9984 26.8453 32.2707 16.6103Z" data-figma-gradient-fill="{&#34;type&#34;:&#34;GRADIENT_DIAMOND&#34;,&#34;stops&#34;:[{&#34;color&#34;:{&#34;r&#34;:0.0,&#34;g&#34;:0.0,&#34;b&#34;:0.0,&#34;a&#34;:1.0},&#34;position&#34;:0.31310665607452393},{&#34;color&#34;:{&#34;r&#34;:0.0,&#34;g&#34;:0.0,&#34;b&#34;:0.0,&#34;a&#34;:0.0},&#34;position&#34;:0.44230768084526062}],&#34;stopsVar&#34;:[{&#34;color&#34;:{&#34;r&#34;:0.0,&#34;g&#34;:0.0,&#34;b&#34;:0.0,&#34;a&#34;:1.0},&#34;position&#34;:0.31310665607452393},{&#34;color&#34;:{&#34;r&#34;:0.0,&#34;g&#34;:0.0,&#34;b&#34;:0.0,&#34;a&#34;:0.0},&#34;position&#34;:0.44230768084526062}],&#34;transform&#34;:{&#34;m00&#34;:-28.273626327514648,&#34;m01&#34;:0.72974681854248047,&#34;m02&#34;:42.032516479492188,&#34;m10&#34;:-0.22640599310398102,&#34;m11&#34;:-26.145240783691406,&#34;m12&#34;:51.985183715820312},&#34;opacity&#34;:1.0,&#34;blendMode&#34;:&#34;DARKEN&#34;,&#34;visible&#34;:true}" style="mix-blend-mode:darken"/>
<defs>
<filter id="filter0_d_1393_3961" x="9.1875" y="11.8278" width="86.668" height="60.085" filterUnits="userSpaceOnUse" color-interpolation-filters="sRGB">
<feFlood flood-opacity="0" result="BackgroundImageFix"/>
<feColorMatrix in="SourceAlpha" type="matrix" values="0 0 0 0 0 0 0 0 0 0 0 0 0 0 0 0 0 0 127 0" result="hardAlpha"/>
<feOffset dx="2" dy="2"/>
<feGaussianBlur stdDeviation="1.5"/>
<feComposite in2="hardAlpha" operator="out"/>
<feColorMatrix type="matrix" values="0 0 0 0 0 0 0 0 0 0 0 0 0 0 0 0 0 0 0.4 0"/>
<feBlend mode="normal" in2="BackgroundImageFix" result="effect1_dropShadow_1393_3961"/>
<feBlend mode="normal" in="SourceGraphic" in2="effect1_dropShadow_1393_3961" result="shape"/>
</filter>
<clipPath id="paint3_diamond_1393_3961_clip_path"><path d="M11.2656 17.7625C14.3602 12.4025 24.3885 10.9054 32.8667 15.8002C39.2829 19.5045 42.2103 24.6644 42.5718 29.8636C42.706 31.794 43.5694 33.6784 45.243 34.6498C45.5841 34.8468 46.0315 34.7031 46.3876 34.5154C46.6964 34.3526 47.1183 34.4648 47.2929 34.7671C48.015 36.017 49.3927 37.0509 50.7548 37.8381C61.3405 43.956 55.9097 40.8245 59.2144 42.7128C64.3871 45.6686 72.5498 49.2897 79.8691 51.1232C80.7684 51.3485 81.5315 51.951 81.9285 52.7888L82.4558 53.9019L88.3345 55.0265C89.6416 55.2765 90.6278 56.3578 90.7567 57.6824L90.8188 58.3204C91.1503 61.7249 89.2805 64.9635 86.1663 66.3787L85.5828 66.6439C84.3712 67.1945 82.9417 66.8811 82.0716 65.8742L78.1583 61.3454L76.9306 61.4453C76.0066 61.5204 75.1033 61.1608 74.4585 60.4946C69.2109 55.0728 61.9936 49.8143 56.8474 46.8126C53.5597 44.8948 58.987 48.0323 48.3959 41.9239C47.033 41.1378 45.4477 40.4634 44.0047 40.4621C43.6558 40.4618 43.3482 40.1525 43.335 39.8038C43.3198 39.4011 43.2207 38.9411 42.8788 38.7447C41.2007 37.7811 39.137 37.9754 37.3981 38.8243C32.7147 41.1106 26.7825 41.155 20.3667 37.4508C11.8886 32.5558 8.17102 23.1225 11.2656 17.7625Z"/></clipPath><clipPath id="paint4_angular_1393_3961_clip_path"><path d="M11.2656 17.7625C13.1294 14.6828 16.8091 13.3372 20.2409 13.0343C24.5944 12.6646 29.0075 13.8234 32.726 16.044C32.87 16.13 33.0121 16.2168 33.1524 16.3043C38.0273 19.249 41.6504 24.3471 41.8616 29.913C41.937 31.2283 42.3218 32.5618 43.1235 33.687C43.5815 34.3301 44.2459 34.824 44.9537 35.1481C45.6948 35.4756 46.2203 35.1436 46.6162 34.949C46.6259 34.9426 46.6381 34.9373 46.6528 34.934C46.7314 34.9096 46.8554 34.9765 46.8583 35.0182C47.6541 36.4416 48.8704 37.4858 50.1652 38.2809C50.2478 38.3308 50.3308 38.3799 50.4138 38.4282C53.2514 40.0751 56.0309 41.7204 58.8585 43.3356C65.4215 47.0278 72.3675 49.9749 79.681 51.8739C79.77 51.8962 79.8576 51.9234 79.9432 51.9554C80.4837 52.1521 81.1881 52.3574 81.5477 52.9692C81.5905 53.0446 81.6307 53.1213 81.6678 53.1995C81.8065 53.4924 81.9419 53.7868 82.0745 54.0826C82.1186 54.1808 82.2712 54.2939 82.3766 54.3163C84.3282 54.7323 86.2578 55.264 88.1905 55.779C89.1261 56.0444 89.7479 56.9149 89.7769 57.7778C89.7907 57.9911 89.8057 58.2043 89.822 58.4174C89.841 58.6744 89.8483 58.9304 89.8447 59.187C89.8289 60.376 89.5041 61.5596 88.9072 62.5892C88.3119 63.6204 87.4432 64.4859 86.4226 65.0906C86.2025 65.2214 85.9776 65.3423 85.746 65.4538C85.5532 65.546 85.361 65.6394 85.1692 65.734C84.4129 66.1365 83.3568 66.0351 82.663 65.3631C81.25 63.9473 79.8233 62.5435 78.4868 61.0616C78.4161 60.9762 78.2337 60.9061 78.1231 60.9127C77.8005 60.9459 77.4775 60.9759 77.1543 61.0022C77.0683 61.0092 76.9821 61.0133 76.8956 61.015C76.1936 61.0194 75.6394 60.5575 75.1865 60.178C75.1148 60.1188 75.0462 60.0555 74.9814 59.9885C69.6849 54.6083 63.6775 50.0485 57.2112 46.1889C54.4039 44.5383 51.5951 42.944 48.7548 41.3017C48.6718 41.2538 48.5881 41.2065 48.5039 41.1597C47.1659 40.4302 45.644 39.9071 44.0052 39.932C43.9821 39.9516 43.8702 39.8858 43.8559 39.8163C43.8521 39.8042 43.851 39.7934 43.8518 39.7843C43.8215 39.3412 43.8457 38.7098 43.1764 38.2267C42.5364 37.7781 41.7733 37.4553 40.9862 37.3801C39.6084 37.2481 38.2597 37.5869 37.0861 38.1853C32.1886 40.8181 25.8884 40.311 20.9301 37.4751C20.7852 37.3951 20.6401 37.313 20.4948 37.229C16.7416 35.06 13.6067 31.7491 11.8839 27.7975C10.5234 24.6808 10.056 20.8764 11.7852 18.0625C11.4388 17.8625 11.0924 17.6625 10.746 17.4625C8.92517 20.9164 9.72001 24.8973 11.2181 28.0988C13.1455 32.1502 16.3986 35.4546 20.2387 37.6726C20.3869 37.758 20.5348 37.8416 20.6824 37.9232C25.665 40.7779 32.1412 42.1239 37.71 39.4633C38.7059 39.0046 39.803 38.7726 40.8402 38.8739C41.4301 38.9314 42.021 39.0196 42.5813 39.2628C42.6307 39.2079 42.813 39.4899 42.8183 39.8233C42.8232 39.926 42.8416 40.0262 42.8709 40.1209C43.0255 40.6012 43.4438 40.973 44.0042 40.9921C45.322 41.0531 46.5875 41.7442 47.8062 42.4153C47.8834 42.4582 47.9605 42.5019 48.037 42.5461C50.8742 44.1892 53.6911 45.7911 56.4837 47.4362C62.8077 51.2143 68.7754 55.7539 73.9356 61.0007C74.0381 61.1066 74.1466 61.2069 74.2605 61.3008C75.0259 61.933 76.0859 62.0056 76.9656 61.8755C77.0512 61.8632 77.137 61.8533 77.223 61.8463C77.5462 61.82 77.8697 61.7975 78.1935 61.778L77.8299 61.6292C79.1022 63.1665 80.2843 64.7818 81.4802 66.3852C82.4517 67.6972 84.41 68.2567 85.9963 67.5538C86.1936 67.4716 86.3904 67.3882 86.5867 67.3036C86.8903 67.1718 87.1847 67.0216 87.4695 66.8524C88.7919 66.0686 89.8977 64.9313 90.6619 63.6024C91.4293 62.2748 91.852 60.747 91.8674 59.2126C91.8711 58.8816 91.8537 58.5518 91.8156 58.2233C91.7906 58.0111 91.7642 57.799 91.7366 57.587C91.5516 55.8684 90.0938 54.4588 88.4785 54.274C86.4921 54.0392 84.5025 53.8213 82.5351 53.4875L82.8371 53.7213C82.6922 53.4313 82.5502 53.1401 82.4114 52.8472C82.3744 52.769 82.3405 52.6893 82.3092 52.6084C81.9947 51.7835 81.4295 50.8585 80.4853 50.5058C80.3451 50.4534 80.2021 50.4089 80.0571 50.3726C72.9389 48.5296 66.0171 45.6556 59.5703 42.09C56.7436 40.504 53.9423 38.8752 51.0958 37.248C51.0186 37.2038 50.9416 37.1588 50.865 37.1133C49.6693 36.3953 48.4392 35.6353 47.7275 34.516C47.4393 34.0519 46.9198 33.8779 46.4377 33.981C46.3428 34.0024 46.2486 34.0357 46.1589 34.0817C45.8647 34.244 45.5215 34.2303 45.531 34.1509C45.0409 33.782 44.6725 33.3089 44.3271 32.8259C43.7192 31.9762 43.3756 30.9063 43.2819 29.8142C42.8449 23.6689 38.4749 18.6282 33.4508 15.809C33.3048 15.724 33.1571 15.6398 33.0075 15.5563C29.1301 13.3944 24.6202 12.3287 20.2177 12.7994C16.7486 13.18 13.055 14.6339 11.2656 17.7625ZM11.2656 17.7625L10.746 17.4625L11.7852 18.0625L11.2656 17.7625Z"/></clipPath><clipPath id="paint5_angular_1393_3961_clip_path"><path d="M47.0251 34.9153C46.9105 34.9734 46.8519 35.0054 46.8488 35.0097C47.6163 36.8599 49.2134 38.072 50.9213 38.9735L58.9836 43.6283C64.3799 46.6207 70.0365 49.2784 75.8482 51.3184C76.9928 51.6775 78.1437 52.0194 79.3022 52.3124C79.5544 52.3772 79.8101 52.4553 80.0552 52.6117C80.3055 52.7607 80.4934 53.0592 80.5583 53.3184L80.6012 53.4649L80.4712 53.5454C79.8173 53.9407 79.3927 54.762 79.6616 55.4731C79.9407 56.3969 81.0287 56.8544 81.925 56.5273C82.4258 56.36 82.8602 55.9816 83.128 55.518L83.2042 55.3861L83.351 55.4246C84.7084 55.7789 86.0663 56.1332 87.4149 56.4854C88.091 56.6197 88.7589 57.1423 88.8771 57.8844C89.019 58.7652 89.0986 59.6847 88.8188 60.5909C88.7123 60.923 88.4783 61.2757 88.106 61.4231C88.0981 61.4264 88.0901 61.4299 88.0822 61.4331C87.7078 61.5934 87.2341 61.4469 87.0152 61.1035C86.8237 60.8307 86.8329 60.4605 86.9916 60.1776C86.1974 60.1552 85.4031 60.1335 84.6089 60.1111C85.0254 60.7878 85.4408 61.4655 85.8573 62.1422C86.0228 61.8629 86.3391 61.6694 86.6715 61.6989C87.0783 61.7167 87.442 62.0537 87.4904 62.4581C87.4916 62.4666 87.4925 62.4752 87.4937 62.4837C87.5521 62.8798 87.3637 63.2589 87.1293 63.5171C86.4844 64.2125 85.6483 64.6033 84.8146 64.9209C84.1128 65.1895 83.3262 64.8727 82.8781 64.361C81.8925 63.3626 80.9069 62.3634 79.9213 61.365L79.8145 61.2571L79.8907 61.1252C80.1583 60.6614 80.2688 60.096 80.1633 59.5787C79.9985 58.6389 79.0582 57.9255 78.1186 58.1456C77.3683 58.2683 76.8693 59.0466 76.854 59.8106L76.8492 59.9634L76.7009 59.9996C76.444 60.0729 76.0916 60.0595 75.8374 59.9171C75.5793 59.7831 75.3839 59.6007 75.2016 59.4148C74.3686 58.558 73.4971 57.7322 72.6138 56.9205C67.9413 52.9074 62.8113 49.3375 57.5217 46.1604L49.4594 41.5056C47.8227 40.4755 45.9714 39.6991 43.9825 39.9606C45.9142 39.6877 47.9867 40.1034 49.6596 41.1588L57.7219 45.8136C63.0516 49.0164 68.1589 52.5682 72.8844 56.6256C73.772 57.4414 74.6466 58.2697 75.4896 59.1367C75.788 59.4441 76.0987 59.687 76.4629 59.6423C76.54 58.7861 77.1284 57.9084 78.0433 57.7526C79.1801 57.4765 80.3742 58.3845 80.5544 59.4989C80.6706 60.0761 80.5673 60.6724 80.3078 61.1878C81.2593 62.1517 82.2115 63.1155 83.1689 64.0857C83.5477 64.515 84.1602 64.7455 84.6761 64.5455C85.4746 64.2448 86.2758 63.8534 86.8299 63.2506C87.0195 63.0396 87.1338 62.7843 87.0971 62.5378C87.096 62.5293 87.095 62.5206 87.0938 62.5122C87.0677 62.2919 86.8692 62.1073 86.6475 62.0978C86.3728 62.0727 86.1158 62.3294 86.1398 62.6041C86.1617 62.8122 85.8498 62.9099 85.7487 62.7268C85.191 61.8206 84.633 60.9144 84.0752 60.0082C84.0364 59.9451 84.0357 59.8658 84.0727 59.8016C84.1098 59.7374 84.1789 59.6983 84.2529 59.7004C85.3166 59.7303 86.3804 59.7605 87.444 59.7904C87.6531 59.7863 87.7245 60.1053 87.5333 60.1904C87.2834 60.307 87.1897 60.6579 87.3487 60.8833C87.4678 61.0704 87.7269 61.1501 87.9308 61.0626C87.9387 61.0594 87.9466 61.0559 87.9545 61.0527C88.1864 60.9611 88.3504 60.7345 88.4383 60.4648C88.6833 59.6835 88.6216 58.794 88.4828 57.9522C88.398 57.4055 87.893 56.9902 87.3233 56.8745C86.0126 56.5324 84.701 56.1909 83.3903 55.8487C83.0737 56.3308 82.6091 56.7181 82.0515 56.9059C80.9963 57.3071 79.6128 56.7269 79.2836 55.6044C78.9611 54.7345 79.4269 53.7867 80.1294 53.2917C79.9862 52.9536 79.621 52.8055 79.2054 52.7007C78.033 52.4042 76.8784 52.0609 75.7281 51.7001C69.8515 49.6365 64.222 46.9893 58.7834 43.975L50.7211 39.3202C48.9734 38.4002 47.5778 36.8162 46.8488 35.0097C46.8477 35.0074 46.786 35.0342 46.665 35.0897C46.785 35.0318 46.9051 34.9732 47.0251 34.9153ZM77.631 59.7089C77.6807 59.3405 78.0166 59.0139 78.3981 58.9994C78.9105 58.9586 79.3751 59.3846 79.4144 59.8759C79.4542 60.5357 79.0415 61.2074 78.3568 61.321C78.2283 61.3339 78.1031 61.347 77.9782 61.3595C77.9009 61.3672 77.8231 61.3754 77.7458 61.3832C77.7362 61.3005 77.7266 61.217 77.717 61.1343C77.794 61.124 77.8715 61.1146 77.9485 61.1044C78.0729 61.0879 78.198 61.0707 78.3225 61.0542C78.8043 60.9751 79.1478 60.3883 79.0915 59.9116C79.0542 59.5868 78.7375 59.3239 78.424 59.3627C78.2144 59.3808 78.0431 59.5546 78.0195 59.7685C78.012 59.8257 78.0126 59.8856 78.0215 59.9467C78.0288 59.9992 78.0149 60.0527 77.9824 60.0945C77.9499 60.136 77.9015 60.1636 77.8483 60.1704C77.7951 60.1771 77.7412 60.1618 77.6994 60.1295C77.6576 60.097 77.6309 60.049 77.6251 59.9965C77.6147 59.9027 77.6149 59.8057 77.631 59.7089ZM80.5456 55.2799C80.3674 54.9422 80.4822 54.488 80.7765 54.2607C80.8523 54.1984 80.9362 54.1497 81.0226 54.1119C81.071 54.0906 81.126 54.0897 81.175 54.1096C81.2238 54.1297 81.264 54.1688 81.2849 54.2182C81.3056 54.2676 81.3058 54.3234 81.2861 54.3723C81.2662 54.4213 81.2268 54.4601 81.1777 54.4799C81.1203 54.5028 81.0681 54.5322 81.0224 54.5673C80.8489 54.6948 80.784 54.93 80.8732 55.1206C80.9963 55.4115 81.3824 55.5543 81.6824 55.4242C82.1233 55.2346 82.4597 54.6437 82.2873 54.1869C82.2394 54.0709 82.1917 53.954 82.1438 53.8379C82.1141 53.7661 82.0836 53.6943 82.0539 53.6225C82.1303 53.5895 82.2074 53.556 82.2839 53.523C82.3158 53.5938 82.3476 53.6653 82.3796 53.7361C82.4312 53.8505 82.4825 53.9655 82.5355 54.0832C82.7795 54.733 82.4041 55.4263 81.8128 55.7217C81.3676 55.9333 80.7664 55.7439 80.5456 55.2799Z"/></clipPath><clipPath id="paint6_angular_1393_3961_clip_path"><path d="M11.0491 17.6375C11.1935 17.7208 11.3378 17.8042 11.4821 17.8875C13.1752 14.8482 16.8043 13.3709 20.2371 12.996C24.5916 12.5256 29.0684 13.6098 32.8667 15.8003C33.0136 15.885 33.1586 15.9705 33.3018 16.0568C38.2682 18.9487 42.0847 24.1329 42.3272 29.8806C42.4014 31.1231 42.7688 32.3744 43.5086 33.4115C43.9301 34.0024 44.4755 34.5138 45.1092 34.8802C45.6395 35.1606 46.1384 34.9368 46.5118 34.751C46.6829 34.6519 46.9754 34.7321 47.0623 34.9003C47.9144 36.3263 49.2673 37.2711 50.6217 38.0684C53.4643 39.7054 56.2532 41.3411 59.0831 42.9426C65.615 46.5846 72.5568 49.4969 79.8059 51.3754C80.6211 51.5752 81.3402 52.1432 81.6941 52.8998C81.87 53.2708 82.0459 53.6418 82.2218 54.0128L82.278 54.1316L82.4072 54.1563C84.3668 54.5307 86.3264 54.9051 88.2861 55.2796C89.4519 55.4849 90.403 56.5272 90.501 57.7073C90.5218 57.9199 90.5425 58.1326 90.5632 58.3452C90.5909 58.6286 90.603 58.9122 90.5994 59.1966C90.587 60.498 90.4731 61.9018 89.7845 63.0958C89.0949 64.2888 87.9393 65.0931 86.8175 65.7552C86.573 65.9004 86.3214 66.0317 86.0622 66.1495C85.8676 66.2379 85.6731 66.3262 85.4786 66.4146C84.4057 66.9208 83.0249 66.6178 82.2626 65.7091C80.9584 64.1993 79.6542 62.6895 78.3501 61.1797L78.266 61.0824L78.1378 61.0928C77.7285 61.126 77.3193 61.1593 76.9101 61.1925C76.0761 61.2645 75.2229 60.9251 74.6411 60.3179C69.3899 54.9801 63.3968 50.4251 56.9772 46.59C54.1752 44.9404 51.3641 43.343 48.5251 41.6998C47.1577 40.9257 45.663 40.229 44.0049 40.2032C43.8116 40.2116 43.5937 39.9959 43.5938 39.7941C43.5684 39.3784 43.5127 38.8357 43.0078 38.5201C42.3745 38.1551 41.6599 37.9387 40.9384 37.8693C39.6721 37.7473 38.4059 38.054 37.2935 38.6101C32.1908 41.2731 25.7933 40.5539 20.8063 37.6991C20.66 37.6183 20.5135 37.5355 20.3668 37.4507C16.5706 35.2566 13.3933 31.9216 11.6234 27.9153C10.2317 24.7549 9.69659 20.8734 11.4821 17.8875C11.3378 17.8042 11.1935 17.7208 11.0491 17.6375C9.28456 20.9194 10.0118 24.8232 11.4786 27.9809C13.3589 31.9777 16.5696 35.258 20.3667 37.4509C20.5135 37.5356 20.66 37.6183 20.8063 37.6991C25.7601 40.5349 32.139 41.6688 37.5027 39.0385C38.5597 38.5375 39.7393 38.2734 40.888 38.3848C41.5434 38.448 42.1829 38.6426 42.7499 38.9692C42.9637 39.0821 43.0661 39.4526 43.0763 39.8136C43.1007 40.3042 43.4993 40.7129 44.0045 40.721C45.4908 40.7391 46.9414 41.3934 48.2667 42.1479C51.1052 43.7903 53.9199 45.389 56.7176 47.0351C63.0884 50.8377 69.0704 55.382 74.2759 60.6713C74.9567 61.3814 75.9609 61.7836 76.9512 61.6981C77.3604 61.6647 77.7696 61.6313 78.1789 61.598L77.9666 61.5111C79.2713 63.0204 80.5759 64.5298 81.8806 66.0392C82.7836 67.1146 84.4173 67.4724 85.687 66.8732C85.8815 66.7847 86.076 66.6963 86.2705 66.6079C86.5464 66.4824 86.8142 66.3426 87.0746 66.1878C88.2958 65.4614 89.1147 64.2629 89.7845 63.0958C90.4603 61.9325 91.0939 60.625 91.1126 59.2031C91.1165 58.8998 91.1037 58.5975 91.0744 58.2955C91.0537 58.0828 91.0331 57.8701 91.0124 57.6575C90.8964 56.2561 89.768 55.0182 88.3829 54.7734C86.4234 54.3981 84.464 54.0228 82.5045 53.6475L82.6899 53.791C82.5142 53.4199 82.3385 53.0489 82.1628 52.6778C81.741 51.7757 80.8891 51.106 79.9323 50.8711C72.7496 49.0076 65.8235 46.0988 59.3457 42.483C56.5213 40.8834 53.7294 39.2449 50.8879 37.6079C49.5724 36.8378 48.2801 35.9102 47.5235 34.6339C47.2617 34.1963 46.7047 34.0541 46.2634 34.2798C45.9466 34.4508 45.5767 34.5453 45.3762 34.4191C44.8113 34.0923 44.3239 33.6366 43.942 33.1014C43.2722 32.1637 42.9112 31.0114 42.8164 29.8466C42.4106 23.8832 38.2342 18.9289 33.3018 16.0568C33.1586 15.9705 33.0136 15.8849 32.8668 15.8001C29.0692 13.6081 24.623 12.4677 20.2215 12.8377C16.7534 13.1463 13.0091 14.4684 11.0491 17.6375ZM11.4821 17.8875L11.0491 17.6375L11.4821 17.8875Z"/></clipPath><clipPath id="paint9_diamond_1393_3961_clip_path"><path d="M32.2707 16.6103C24.0871 11.8856 14.5502 13.0834 11.7031 18.0146C8.85609 22.9458 12.5872 31.804 20.7707 36.5289C38.2519 46.6216 49.9984 26.8453 32.2707 16.6103Z"/></clipPath><radialGradient id="paint0_radial_1393_3961" cx="0" cy="0" r="1" gradientTransform="matrix(12.6576 -10.7923 17.2824 19.573 34.9112 26.8851)" gradientUnits="userSpaceOnUse">
<stop offset="0.110577" stop-color="white"/>
<stop offset="0.591346" stop-color="#C6C6C8"/>
<stop offset="1" stop-color="#999999"/>
</radialGradient>
<linearGradient id="paint1_linear_1393_3961" x1="11.2656" y1="17.7625" x2="91.373" y2="64.0125" gradientUnits="userSpaceOnUse">
<stop offset="0.185977" stop-opacity="0"/>
<stop offset="0.432024" stop-color="white"/>
</linearGradient>
<linearGradient id="paint2_linear_1393_3961" x1="49.931" y1="43.292" x2="52.8307" y2="38.2697" gradientUnits="userSpaceOnUse">
<stop offset="0.139423" stop-color="white"/>
<stop offset="0.822115" stop-color="#4B4B4B"/>
</linearGradient>
<linearGradient id="paint3_diamond_1393_3961" x1="0" y1="0" x2="500" y2="500" gradientUnits="userSpaceOnUse">
<stop offset="0.163462" stop-color="white"/>
<stop offset="0.221154" stop-color="white" stop-opacity="0"/>
</linearGradient>
<radialGradient id="paint7_radial_1393_3961" cx="0" cy="0" r="1" gradientTransform="matrix(14.2369 -16.2406 27.6881 24.725 16.3183 33.9583)" gradientUnits="userSpaceOnUse">
<stop offset="0.170396"/>
<stop offset="0.4375"/>
<stop offset="0.5" stop-color="#999999" stop-opacity="0.87"/>
<stop offset="0.769231" stop-color="#CACACA" stop-opacity="0.52"/>
<stop offset="0.861045" stop-color="white"/>
</radialGradient>
<radialGradient id="paint8_radial_1393_3961" cx="0" cy="0" r="1" gradientTransform="matrix(16.1136 -11.6804 15.3471 21.9829 18.1645 33.0151)" gradientUnits="userSpaceOnUse">
<stop offset="0.777294" stop-color="white" stop-opacity="0"/>
<stop offset="0.875349" stop-color="white"/>
</radialGradient>
<linearGradient id="paint9_diamond_1393_3961" x1="0" y1="0" x2="500" y2="500" gradientUnits="userSpaceOnUse">
<stop offset="0.313107"/>
<stop offset="0.442308" stop-opacity="0"/>
</linearGradient>
</defs>
</svg>
